<?xml version="1.0" encoding="UTF-8" ?>
<!DOCTYPE svg PUBLIC "-//W3C//DTD SVG 1.1//EN" "http://www.w3.org/Graphics/SVG/1.1/DTD/svg11.dtd">
<svg width="554pt" height="135pt" viewBox="0 0 554 135" version="1.1" xmlns="http://www.w3.org/2000/svg">
<g id="#00000012">
<path fill="#000000" opacity="0.07" d=" M 0.00 0.00 L 30.46 0.00 L 29.73 0.84 C 13.59 2.49 -0.12 17.54 1.01 33.96 C 0.96 57.32 0.98 80.68 1.00 104.04 C 1.39 119.53 15.00 132.07 29.84 134.11 L 30.29 135.00 L 0.00 135.00 L 0.00 0.00 Z" />
</g>
<g id="#0000006f">
<path fill="#000000" opacity="0.44" d=" M 30.46 0.00 L 523.78 0.00 L 524.16 0.87 C 444.67 1.32 365.18 0.62 285.70 1.23 C 254.44 0.69 223.17 1.19 191.90 0.94 C 150.52 1.20 109.14 0.69 67.76 1.22 C 55.09 0.83 42.41 1.14 29.73 0.84 L 30.46 0.00 Z" />
</g>
<g id="#2d2d2dff">
<path fill="#2d2d2d" opacity="1.00" d=" M 1.01 33.96 C -0.12 17.54 13.59 2.49 29.73 0.84 C 42.41 1.14 55.09 0.83 67.76 1.22 C 79.12 2.46 91.08 0.62 101.87 5.29 C 103.81 12.47 98.58 22.28 104.12 28.13 C 101.29 40.44 97.71 52.55 94.89 64.86 C 90.20 54.17 88.50 39.99 84.76 28.16 C 74.86 27.96 64.93 27.64 55.03 28.09 C 52.99 49.79 53.82 75.27 54.67 98.35 C 60.89 99.52 67.53 99.33 73.91 98.84 C 74.39 84.78 73.53 70.71 74.24 56.66 C 79.21 70.26 81.01 84.80 85.67 98.47 C 91.14 99.14 96.68 99.10 102.19 99.38 C 101.66 110.55 102.43 121.75 101.86 132.91 C 87.48 133.70 72.99 131.90 58.67 133.68 C 49.06 134.09 39.45 133.99 29.84 134.11 C 15.00 132.07 1.39 119.53 1.00 104.04 C 0.98 80.68 0.96 57.32 1.01 33.96 M 32.30 27.20 C 16.75 47.62 10.23 75.54 21.41 99.63 C 26.89 109.35 31.76 127.06 46.97 118.82 C 31.80 90.25 33.03 55.78 47.11 27.03 C 43.41 27.07 36.00 27.16 32.30 27.20 Z" />
</g>
<g id="#1f1f1fff">
<path fill="#1f1f1f" opacity="1.00" d=" M 67.76 1.22 C 109.14 0.69 150.52 1.20 191.90 0.94 C 189.74 7.79 209.08 -0.41 205.00 10.02 C 205.10 15.66 205.05 21.30 205.02 26.93 C 165.27 29.86 164.84 97.32 204.97 100.14 C 204.28 109.77 206.44 119.96 204.38 129.37 C 194.73 132.09 184.47 131.59 174.68 133.73 C 136.02 134.10 97.32 134.30 58.67 133.68 C 72.99 131.90 87.48 133.70 101.86 132.91 C 102.43 121.75 101.66 110.55 102.19 99.38 C 108.60 86.80 109.03 71.89 113.77 58.56 C 115.16 71.74 112.31 85.40 114.70 98.38 C 121.06 99.06 127.53 99.50 133.91 98.84 C 134.08 75.26 134.10 51.67 133.90 28.09 C 124.29 27.85 114.68 27.88 105.07 28.12 L 104.12 28.13 C 98.58 22.28 103.81 12.47 101.87 5.29 C 91.08 0.62 79.12 2.46 67.76 1.22 M 145.07 78.06 C 144.84 85.01 144.89 91.96 145.06 98.91 C 152.34 99.23 159.64 99.06 166.93 98.94 C 167.15 91.99 167.11 85.03 166.94 78.09 C 159.65 77.77 152.35 77.94 145.07 78.06 Z" />
</g>
<g id="#0f0f0fff">
<path fill="#0f0f0f" opacity="1.00" d=" M 191.90 0.94 C 223.17 1.19 254.44 0.69 285.70 1.23 C 288.70 2.60 292.95 2.40 294.75 5.43 C 295.85 29.38 293.90 53.41 295.66 77.32 C 296.55 84.02 293.33 91.98 297.84 97.87 C 287.97 106.73 305.50 133.76 284.71 133.80 C 248.04 134.08 211.35 134.24 174.68 133.73 C 184.47 131.59 194.73 132.09 204.38 129.37 C 206.44 119.96 204.28 109.77 204.97 100.14 C 214.54 99.55 230.76 101.63 236.41 91.63 C 237.11 90.85 237.85 90.11 238.61 89.39 C 256.27 74.36 251.39 36.13 226.92 29.00 C 219.85 26.62 212.36 26.97 205.02 26.93 C 205.05 21.30 205.10 15.66 205.00 10.02 C 209.08 -0.41 189.74 7.79 191.90 0.94 M 257.07 78.06 C 256.84 85.01 256.88 91.96 257.06 98.91 C 264.34 99.23 271.64 99.06 278.93 98.94 C 279.15 91.99 279.11 85.03 278.94 78.09 C 271.65 77.77 264.35 77.94 257.07 78.06 Z" />
</g>
<g id="#020202ff">
<path fill="#020202" opacity="1.00" d=" M 285.70 1.23 C 365.18 0.62 444.67 1.32 524.16 0.87 C 539.01 2.32 551.64 15.01 553.13 29.84 C 552.96 54.96 552.85 80.08 553.15 105.19 C 551.24 119.75 538.84 132.48 524.15 134.13 C 444.34 133.70 364.52 134.35 284.71 133.80 C 305.50 133.76 287.97 106.73 297.84 97.87 C 318.26 109.82 350.59 104.35 356.53 78.52 C 362.01 60.07 347.89 42.53 331.99 35.06 C 321.09 31.87 307.23 17.93 297.31 28.33 C 294.00 44.16 297.25 61.11 295.66 77.32 C 293.90 53.41 295.85 29.38 294.75 5.43 C 292.95 2.40 288.70 2.60 285.70 1.23 M 391.47 21.54 C 382.96 26.72 367.26 18.06 363.04 29.10 C 366.84 51.26 357.56 74.40 364.97 96.06 C 373.91 107.64 391.64 103.35 404.16 103.29 C 410.26 104.84 416.89 98.84 414.25 92.84 C 407.02 80.60 387.72 93.23 378.03 86.96 C 377.75 81.39 377.93 75.79 378.11 70.22 C 389.71 66.99 405.55 72.70 414.78 63.69 C 417.08 42.44 388.00 58.39 379.00 54.00 C 379.02 50.31 379.06 42.94 379.08 39.26 C 390.66 30.15 412.95 47.98 418.93 31.91 C 417.36 19.92 400.61 21.36 391.47 21.54 M 421.63 36.33 C 426.98 56.74 432.48 77.26 440.08 96.98 C 441.67 105.20 454.19 104.76 456.11 97.05 C 466.02 76.37 472.02 54.01 482.64 33.64 C 483.54 31.97 482.31 30.23 481.34 28.91 C 479.31 22.70 470.09 24.39 467.17 29.19 C 459.02 43.29 455.95 59.85 448.39 74.16 C 444.26 58.97 439.89 43.73 435.31 28.75 C 430.67 20.89 417.78 27.81 421.63 36.33 M 486.03 28.00 C 499.35 55.42 501.00 88.29 486.88 115.88 C 482.31 122.17 497.45 118.38 496.64 118.16 C 512.68 98.70 516.41 69.45 507.05 45.98 C 503.09 36.79 498.00 20.49 486.03 28.00 M 524.05 47.06 C 520.64 58.53 525.30 68.58 538.32 62.32 C 542.88 50.11 536.85 43.34 524.05 47.06 M 525.05 98.90 C 533.52 96.03 528.33 102.00 528.10 105.10 C 522.32 104.79 522.24 110.39 525.34 113.82 C 529.59 114.38 535.05 111.42 536.10 107.03 C 541.87 99.63 542.84 78.53 529.00 83.94 C 519.83 80.29 524.47 96.48 525.05 98.90 Z" />
<path fill="#020202" opacity="1.00" d=" M 184.18 39.19 C 195.35 26.81 214.58 25.81 229.35 31.63 C 250.86 40.79 252.68 72.95 238.61 89.39 C 237.85 90.11 237.11 90.85 236.41 91.63 C 225.92 99.96 211.34 100.44 198.81 97.28 C 174.80 90.71 170.19 57.14 184.18 39.19 M 203.07 48.11 C 202.85 48.35 202.39 48.85 202.17 49.10 C 192.92 57.49 195.23 82.77 210.99 83.09 C 228.88 84.95 230.42 58.49 221.96 49.01 C 219.29 42.65 206.50 41.63 203.07 48.11 Z" />
<path fill="#020202" opacity="1.00" d=" M 56.09 29.15 C 65.20 28.61 74.36 28.86 83.48 29.25 C 87.83 42.75 90.17 56.82 94.30 70.39 C 99.40 57.14 101.40 42.78 105.12 29.06 C 114.36 28.96 123.60 28.82 132.84 29.09 C 133.26 52.00 132.98 74.95 132.91 97.87 C 127.20 98.12 121.49 98.09 115.78 98.31 C 116.08 81.06 116.23 63.80 115.76 46.56 C 110.04 63.17 107.17 80.64 102.39 97.52 C 97.20 98.31 91.86 98.31 86.67 97.51 C 82.05 80.61 78.36 63.42 73.28 46.65 C 72.50 63.72 73.39 80.82 72.91 97.90 C 67.34 98.30 61.74 98.11 56.16 97.93 C 55.74 75.02 56.02 52.07 56.09 29.15 Z" />
</g>
<g id="#b7c7c7ff">
<path fill="#b7c7c7" opacity="1.00" d=" M 391.47 21.54 C 400.61 21.36 417.36 19.92 418.93 31.91 C 412.95 47.98 390.66 30.15 379.08 39.26 C 379.06 42.94 379.02 50.31 379.00 54.00 C 388.00 58.39 417.08 42.44 414.78 63.69 C 405.55 72.70 389.71 66.99 378.11 70.22 C 377.93 75.79 377.75 81.39 378.03 86.96 C 387.72 93.23 407.02 80.60 414.25 92.84 C 416.89 98.84 410.26 104.84 404.16 103.29 C 391.64 103.35 373.91 107.64 364.97 96.06 C 357.56 74.40 366.84 51.26 363.04 29.10 C 367.26 18.06 382.96 26.72 391.47 21.54 M 386.47 23.55 C 379.70 27.18 370.64 21.07 365.17 27.25 C 366.46 50.01 360.74 73.36 366.22 95.76 C 376.68 107.03 394.18 100.53 407.58 101.60 C 414.67 101.70 415.31 90.77 408.71 89.28 C 398.60 89.60 388.41 90.56 378.26 89.91 C 374.48 83.91 376.80 75.87 377.18 69.21 C 388.69 65.20 404.50 71.40 413.84 62.65 C 414.10 44.12 386.32 60.86 378.04 55.01 C 378.69 47.66 373.92 34.77 385.03 36.04 C 395.01 30.88 409.69 43.33 416.75 33.70 C 418.43 19.13 395.11 23.63 386.47 23.55 Z" />
</g>
<g id="#02fdfdff">
<path fill="#02fdfd" opacity="1.00" d=" M 386.47 23.55 C 395.11 23.63 418.43 19.13 416.75 33.70 C 409.69 43.33 395.01 30.88 385.03 36.04 C 373.92 34.77 378.69 47.66 378.04 55.01 C 386.32 60.86 414.10 44.12 413.84 62.65 C 404.50 71.40 388.69 65.20 377.18 69.21 C 376.80 75.87 374.48 83.91 378.26 89.91 C 388.41 90.56 398.60 89.60 408.71 89.28 C 415.31 90.77 414.67 101.70 407.58 101.60 C 394.18 100.53 376.68 107.03 366.22 95.76 C 360.74 73.36 366.46 50.01 365.17 27.25 C 370.64 21.07 379.70 27.18 386.47 23.55 Z" />
</g>
<g id="#c6b1c6ff">
<path fill="#c6b1c6" opacity="1.00" d=" M 297.31 28.33 C 307.23 17.93 321.09 31.87 331.99 35.06 C 347.89 42.53 362.01 60.07 356.53 78.52 C 350.59 104.35 318.26 109.82 297.84 97.87 C 293.33 91.98 296.55 84.02 295.66 77.32 C 297.25 61.11 294.00 44.16 297.31 28.33 M 303.31 25.26 C 294.80 28.46 297.00 39.56 297.45 46.58 C 299.78 62.75 294.95 79.32 297.69 95.27 C 316.58 108.98 350.11 102.83 355.44 77.40 C 361.09 46.54 327.18 32.13 303.31 25.26 Z" />
</g>
<g id="#fe01feff">
<path fill="#fe01fe" opacity="1.00" d=" M 303.31 25.26 C 327.18 32.13 361.09 46.54 355.44 77.40 C 350.11 102.83 316.58 108.98 297.69 95.27 C 294.95 79.32 299.78 62.75 297.45 46.58 C 297.00 39.56 294.80 28.46 303.31 25.26 M 309.99 41.11 C 310.02 56.66 309.87 72.21 310.08 87.76 C 321.58 94.40 340.41 89.17 342.88 74.84 C 346.64 55.03 324.65 46.87 309.99 41.11 Z" />
</g>
<g id="#b6c6bdff">
<path fill="#b6c6bd" opacity="1.00" d=" M 421.63 36.33 C 417.78 27.81 430.67 20.89 435.31 28.75 C 439.89 43.73 444.26 58.97 448.39 74.16 C 455.95 59.85 459.02 43.29 467.17 29.19 C 470.09 24.39 479.31 22.70 481.34 28.91 C 473.57 21.38 465.95 31.21 463.85 38.87 C 458.69 51.95 454.73 65.60 448.44 78.17 C 443.41 62.64 439.39 46.78 434.88 31.11 C 432.53 23.18 419.33 27.61 422.99 35.98 C 428.92 57.39 433.87 79.61 443.21 99.79 C 453.14 106.94 457.40 91.19 460.30 84.30 C 467.10 65.77 475.23 47.42 481.34 28.91 C 482.31 30.23 483.54 31.97 482.64 33.64 C 472.02 54.01 466.02 76.37 456.11 97.05 C 454.19 104.76 441.67 105.20 440.08 96.98 C 432.48 77.26 426.98 56.74 421.63 36.33 Z" />
</g>
<g id="#02fd71ff">
<path fill="#02fd71" opacity="1.00" d=" M 463.85 38.87 C 465.95 31.21 473.57 21.38 481.34 28.91 C 475.23 47.42 467.10 65.77 460.30 84.30 C 457.40 91.19 453.14 106.94 443.21 99.79 C 433.87 79.61 428.92 57.39 422.99 35.98 C 419.33 27.61 432.53 23.18 434.88 31.11 C 439.39 46.78 443.41 62.64 448.44 78.17 C 454.73 65.60 458.69 51.95 463.85 38.87 Z" />
</g>
<g id="#c0c0c0ff">
<path fill="#c0c0c0" opacity="1.00" d=" M 32.30 27.20 C 36.00 27.16 43.41 27.07 47.11 27.03 C 33.03 55.78 31.80 90.25 46.97 118.82 C 31.76 127.06 26.89 109.35 21.41 99.63 C 10.23 75.54 16.75 47.62 32.30 27.20 M 34.35 28.16 C 18.66 45.42 13.45 71.21 20.59 93.37 C 25.85 103.89 29.27 123.12 45.09 117.96 C 31.17 90.70 31.18 57.89 44.40 30.38 C 47.25 24.94 36.75 29.29 34.35 28.16 Z" />
</g>
<g id="#bbbbbbff">
<path fill="#bbbbbb" opacity="1.00" d=" M 204.97 100.14 C 164.84 97.32 165.27 29.86 205.02 26.93 C 212.36 26.97 219.85 26.62 226.92 29.00 C 251.39 36.13 256.27 74.36 238.61 89.39 C 252.68 72.95 250.86 40.79 229.35 31.63 C 214.58 25.81 195.35 26.81 184.18 39.19 C 170.19 57.14 174.80 90.71 198.81 97.28 C 211.34 100.44 225.92 99.96 236.41 91.63 C 230.76 101.63 214.54 99.55 204.97 100.14 Z" />
</g>
<g id="#c1c1c1ff">
<path fill="#c1c1c1" opacity="1.00" d=" M 486.03 28.00 C 498.00 20.49 503.09 36.79 507.05 45.98 C 516.41 69.45 512.68 98.70 496.64 118.16 C 509.20 97.32 515.96 71.05 506.33 47.70 C 502.12 39.47 499.53 24.62 487.16 27.92 C 498.14 49.98 501.87 75.88 494.56 99.72 C 493.20 107.48 481.17 121.61 496.64 118.16 C 497.45 118.38 482.31 122.17 486.88 115.88 C 501.00 88.29 499.35 55.42 486.03 28.00 Z" />
</g>
<g id="#030303ff">
<path fill="#030303" opacity="1.00" d=" M 34.35 28.16 C 36.75 29.29 47.25 24.94 44.40 30.38 C 31.18 57.89 31.17 90.70 45.09 117.96 C 29.27 123.12 25.85 103.89 20.59 93.37 C 13.45 71.21 18.66 45.42 34.35 28.16 Z" />
</g>
<g id="#717171ff">
<path fill="#717171" opacity="1.00" d=" M 54.67 98.35 C 53.82 75.27 52.99 49.79 55.03 28.09 C 54.73 51.51 55.47 74.94 54.67 98.35 Z" />
</g>
<g id="#c4c4c4ff">
<path fill="#c4c4c4" opacity="1.00" d=" M 55.03 28.09 C 64.93 27.64 74.86 27.96 84.76 28.16 C 88.50 39.99 90.20 54.17 94.89 64.86 C 97.71 52.55 101.29 40.44 104.12 28.13 L 105.07 28.12 L 105.12 29.06 C 101.40 42.78 99.40 57.14 94.30 70.39 C 90.17 56.82 87.83 42.75 83.48 29.25 C 74.36 28.86 65.20 28.61 56.09 29.15 C 56.02 52.07 55.74 75.02 56.16 97.93 C 61.74 98.11 67.34 98.30 72.91 97.90 C 73.39 80.82 72.50 63.72 73.28 46.65 C 78.36 63.42 82.05 80.61 86.67 97.51 C 91.86 98.31 97.20 98.31 102.39 97.52 C 107.17 80.64 110.04 63.17 115.76 46.56 C 116.23 63.80 116.08 81.06 115.78 98.31 L 114.70 98.38 C 112.31 85.40 115.16 71.74 113.77 58.56 C 109.03 71.89 108.60 86.80 102.19 99.38 C 96.68 99.10 91.14 99.14 85.67 98.47 C 81.01 84.80 79.21 70.26 74.24 56.66 C 73.53 70.71 74.39 84.78 73.91 98.84 C 67.53 99.33 60.89 99.52 54.67 98.35 C 55.47 74.94 54.73 51.51 55.03 28.09 Z" />
</g>
<g id="#f8f8f8ff">
<path fill="#f8f8f8" opacity="1.00" d=" M 105.07 28.12 C 114.68 27.88 124.29 27.85 133.90 28.09 C 134.10 51.67 134.08 75.26 133.91 98.84 C 127.53 99.50 121.06 99.06 114.70 98.38 L 115.78 98.31 C 121.49 98.09 127.20 98.12 132.91 97.87 C 132.98 74.95 133.26 52.00 132.84 29.09 C 123.60 28.82 114.36 28.96 105.12 29.06 L 105.07 28.12 Z" />
</g>
<g id="#040404ff">
<path fill="#040404" opacity="1.00" d=" M 487.16 27.92 C 499.53 24.62 502.12 39.47 506.33 47.70 C 515.96 71.05 509.20 97.32 496.64 118.16 C 481.17 121.61 493.20 107.48 494.56 99.72 C 501.87 75.88 498.14 49.98 487.16 27.92 Z" />
<path fill="#040404" opacity="1.00" d=" M 525.17 97.65 C 525.64 93.62 521.76 84.08 528.01 84.92 C 543.69 79.58 538.09 98.04 536.10 107.03 C 533.10 109.40 530.03 111.86 526.32 112.98 C 523.56 109.81 524.52 106.86 528.10 105.10 C 532.46 103.00 532.40 94.72 525.17 97.65 Z" />
</g>
<g id="#00000076">
<path fill="#000000" opacity="0.46" d=" M 553.13 29.84 L 554.00 30.23 L 554.00 104.70 L 553.15 105.19 C 552.85 80.08 552.96 54.96 553.13 29.84 Z" />
</g>
<g id="#dccedcff">
<path fill="#dccedc" opacity="1.00" d=" M 309.99 41.11 C 324.65 46.87 346.64 55.03 342.88 74.84 C 340.41 89.17 321.58 94.40 310.08 87.76 C 309.87 72.21 310.02 56.66 309.99 41.11 M 311.02 43.08 C 310.94 57.64 310.92 72.20 311.07 86.76 C 324.84 94.85 345.63 83.13 341.60 66.43 C 337.81 52.87 322.63 48.00 311.02 43.08 Z" />
</g>
<g id="#070707ff">
<path fill="#070707" opacity="1.00" d=" M 311.02 43.08 C 322.63 48.00 337.81 52.87 341.60 66.43 C 345.63 83.13 324.84 94.85 311.07 86.76 C 310.92 72.20 310.94 57.64 311.02 43.08 Z" />
</g>
<g id="#b1b1b1ff">
<path fill="#b1b1b1" opacity="1.00" d=" M 203.07 48.11 C 206.50 41.63 219.29 42.65 221.96 49.01 C 216.00 45.68 209.01 43.84 203.07 48.11 Z" />
</g>
<g id="#171717ff">
<path fill="#171717" opacity="1.00" d=" M 203.07 48.11 C 209.01 43.84 216.00 45.68 221.96 49.01 C 226.46 59.51 228.60 78.06 214.80 81.93 C 196.79 84.56 195.55 60.80 202.17 49.10 C 202.39 48.85 202.85 48.35 203.07 48.11 Z" />
</g>
<g id="#cacacaff">
<path fill="#cacaca" opacity="1.00" d=" M 524.05 47.06 C 536.85 43.34 542.88 50.11 538.32 62.32 C 525.30 68.58 520.64 58.53 524.05 47.06 M 525.10 48.04 C 522.52 58.54 525.91 64.97 537.90 60.96 C 540.47 50.46 537.09 44.03 525.10 48.04 Z" />
</g>
<g id="#050505ff">
<path fill="#050505" opacity="1.00" d=" M 525.10 48.04 C 537.09 44.03 540.47 50.46 537.90 60.96 C 525.91 64.97 522.52 58.54 525.10 48.04 Z" />
</g>
<g id="#c5c5c5ff">
<path fill="#c5c5c5" opacity="1.00" d=" M 210.99 83.09 C 195.23 82.77 192.92 57.49 202.17 49.10 C 195.55 60.80 196.79 84.56 214.80 81.93 C 228.60 78.06 226.46 59.51 221.96 49.01 C 230.42 58.49 228.88 84.95 210.99 83.09 Z" />
</g>
<g id="#e1e1e1ff">
<path fill="#e1e1e1" opacity="1.00" d=" M 145.07 78.06 C 152.35 77.94 159.65 77.77 166.94 78.09 C 167.11 85.03 167.15 91.99 166.93 98.94 C 159.64 99.06 152.34 99.23 145.06 98.91 C 144.89 91.96 144.84 85.01 145.07 78.06 M 146.12 79.06 C 145.65 85.33 146.00 91.64 146.08 97.92 C 152.68 98.13 159.28 98.13 165.88 97.94 C 166.34 91.66 165.99 85.36 165.92 79.08 C 159.32 78.87 152.72 78.87 146.12 79.06 Z" />
</g>
<g id="#dfdfdfff">
<path fill="#dfdfdf" opacity="1.00" d=" M 257.07 78.06 C 264.35 77.94 271.65 77.77 278.94 78.09 C 279.11 85.03 279.15 91.99 278.93 98.94 C 271.64 99.06 264.34 99.23 257.06 98.91 C 256.88 91.96 256.84 85.01 257.07 78.06 M 258.12 79.06 C 257.65 85.33 258.00 91.64 258.08 97.92 C 264.68 98.13 271.28 98.13 277.88 97.94 C 278.34 91.66 277.99 85.36 277.92 79.08 C 271.32 78.87 264.72 78.87 258.12 79.06 Z" />
</g>
<g id="#000000ff">
<path fill="#000000" opacity="1.00" d=" M 146.12 79.06 C 152.72 78.87 159.32 78.87 165.92 79.08 C 165.99 85.36 166.34 91.66 165.88 97.94 C 159.28 98.13 152.68 98.13 146.08 97.92 C 146.00 91.64 145.65 85.33 146.12 79.06 Z" />
<path fill="#000000" opacity="1.00" d=" M 258.12 79.06 C 264.72 78.87 271.32 78.87 277.92 79.08 C 277.99 85.36 278.34 91.66 277.88 97.94 C 271.28 98.13 264.68 98.13 258.08 97.92 C 258.00 91.64 257.65 85.33 258.12 79.06 Z" />
</g>
<g id="#d4d4d4ff">
<path fill="#d4d4d4" opacity="1.00" d=" M 525.05 98.90 C 524.47 96.48 519.83 80.29 529.00 83.94 C 542.84 78.53 541.87 99.63 536.10 107.03 C 538.09 98.04 543.69 79.58 528.01 84.92 C 521.76 84.08 525.64 93.62 525.17 97.65 C 532.40 94.72 532.46 103.00 528.10 105.10 C 528.33 102.00 533.52 96.03 525.05 98.90 Z" />
</g>
<g id="#c2c2c2ff">
<path fill="#c2c2c2" opacity="1.00" d=" M 525.34 113.82 C 522.24 110.39 522.32 104.79 528.10 105.10 C 524.52 106.86 523.56 109.81 526.32 112.98 C 530.03 111.86 533.10 109.40 536.10 107.03 C 535.05 111.42 529.59 114.38 525.34 113.82 Z" />
</g>
<g id="#00000079">
<path fill="#000000" opacity="0.47" d=" M 29.84 134.11 C 39.45 133.99 49.06 134.09 58.67 133.68 C 97.32 134.30 136.02 134.10 174.68 133.73 C 211.35 134.24 248.04 134.08 284.71 133.80 C 364.52 134.35 444.34 133.70 524.15 134.13 L 523.78 135.00 L 30.29 135.00 L 29.84 134.11 Z" />
</g>
</svg>
